<svg width="18" height="19" viewBox="0 0 18 19" fill="none" xmlns="http://www.w3.org/2000/svg">
<path id="Vector" d="M0 4.10736V16.6904C0 17.1671 0.210714 17.6243 0.585786 17.9615C0.960859 18.2986 1.46957 18.488 2 18.488H16C16.5304 18.488 17.0391 18.2986 17.4142 17.9615C17.7893 17.6243 18 17.1671 18 16.6904V4.10736C18 3.63061 17.7893 3.17339 17.4142 2.83628C17.0391 2.49917 16.5304 2.30978 16 2.30978H14V0.512207H12V2.30978H6V0.512207H4V2.30978H2C1.46957 2.30978 0.960859 2.49917 0.585786 2.83628C0.210714 3.17339 0 3.63061 0 4.10736ZM16 16.6904H2V5.90493H16V16.6904Z" fill="black"/>
</svg>
