<svg width="16" height="21" viewBox="0 0 16 21" fill="none" xmlns="http://www.w3.org/2000/svg">
<g id="bx-location-plus.svg" clip-path="url(#clip0_130_3651)">
<path id="Vector" d="M7.42009 20.315C7.58968 20.435 7.79232 20.4995 8.00009 20.4995C8.20785 20.4995 8.4105 20.435 8.58009 20.315C8.88409 20.098 16.0291 14.94 16.0001 8.5C16.0001 4.089 12.4111 0.5 8.00009 0.5C3.58909 0.5 8.80377e-05 4.089 8.80377e-05 8.496C-0.028912 14.94 7.11609 20.098 7.42009 20.315ZM8.00009 2.5C11.3091 2.5 14.0001 5.191 14.0001 8.504C14.0211 12.942 9.61209 16.927 8.00009 18.235C6.38909 16.927 1.97909 12.942 2.00009 8.5C2.00009 5.191 4.69109 2.5 8.00009 2.5Z" fill="black"/>
<path id="Vector_2" d="M7.00012 12.5H9.00012V9.5H12.0001V7.5H9.00012V4.5H7.00012V7.5H4.00012V9.5H7.00012V12.5Z" fill="black"/>
</g>
<defs>
<clipPath id="clip0_130_3651">
<rect width="16.0002" height="20" fill="white" transform="translate(0 0.5)"/>
</clipPath>
</defs>
</svg>
