<svg width="29" height="39" viewBox="0 0 29 39" fill="none" xmlns="http://www.w3.org/2000/svg">
<path id="Vector" d="M0 38.5V27.0168C0 26.4146 0.141169 25.8423 0.423505 25.2997C0.705842 24.7586 1.10694 24.3264 1.6268 24.0029L4.30675 22.2523C4.56818 24.8667 4.90728 27.1294 5.32406 29.0402C5.74084 30.9511 6.41756 33.1199 7.3542 35.5465L0 38.5ZM9.07735 34.5024C8.17357 32.2144 7.47594 29.8712 6.98447 27.4729C6.49299 25.0746 6.24651 22.6324 6.24502 20.1462C6.24502 16.2037 6.91874 12.5824 8.26619 9.2823C9.61065 5.98223 11.6953 3.0548 14.5202 0.5C17.3435 3.0548 19.4282 5.98223 20.7741 9.2823C22.1201 12.5824 22.7931 16.2037 22.7931 20.1462C22.7931 22.622 22.5473 25.0575 22.0559 27.4528C21.5659 29.8481 20.8683 32.198 19.963 34.5024H9.07735ZM14.5202 20.3988C15.4658 20.3988 16.262 20.0753 16.9088 19.4285C17.5572 18.783 17.8813 17.9886 17.8813 17.0451C17.8813 16.1016 17.5572 15.3071 16.9088 14.6617C16.2605 14.0163 15.4643 13.6928 14.5202 13.6913C13.5761 13.6898 12.7798 14.0133 12.1315 14.6617C11.4832 15.3071 11.159 16.1016 11.159 17.0451C11.159 17.9886 11.4832 18.783 12.1315 19.4285C12.7798 20.0739 13.5761 20.3973 14.5202 20.3988ZM29 38.5L21.6436 35.589C22.5802 33.1638 23.2569 30.9884 23.6737 29.0626C24.0905 27.1368 24.4296 24.8667 24.691 22.2523L27.371 24.0454C27.8908 24.3689 28.2919 24.8011 28.5743 25.3422C28.8581 25.8848 29 26.4571 29 27.0593V38.5Z" fill="black"/>
</svg>
