<svg width="43" height="43" viewBox="0 0 43 43" fill="none" xmlns="http://www.w3.org/2000/svg">
<g id="material-symbols:target" clip-path="url(#clip0_514_2373)">
<path id="Vector" d="M21.5 43C18.5258 43 15.7308 42.4353 13.115 41.3058C10.4992 40.1763 8.22375 38.6448 6.28875 36.7112C4.35375 34.7777 2.82223 32.5023 1.6942 29.885C0.566169 27.2677 0.00143605 24.4727 2.72152e-06 21.5C-0.00143061 18.5273 0.563303 15.7323 1.6942 13.115C2.8251 10.4977 4.35662 8.22231 6.28875 6.28875C8.22088 4.35518 10.4963 2.82367 13.115 1.6942C15.7337 0.564733 18.5287 0 21.5 0C24.4713 0 27.2663 0.564733 29.885 1.6942C32.5037 2.82367 34.7791 4.35518 36.7112 6.28875C38.6434 8.22231 40.1756 10.4977 41.3079 13.115C42.4403 15.7323 43.0043 18.5273 43 21.5C42.9957 24.4727 42.4309 27.2677 41.3058 29.885C40.1806 32.5023 38.6491 34.7777 36.7112 36.7112C34.7734 38.6448 32.4979 40.177 29.885 41.3079C27.272 42.4388 24.477 43.0029 21.5 43ZM21.5 38.7C26.3017 38.7 30.3687 37.0337 33.7012 33.7012C37.0337 30.3687 38.7 26.3017 38.7 21.5C38.7 16.6983 37.0337 12.6312 33.7012 9.29875C30.3687 5.96625 26.3017 4.3 21.5 4.3C16.6983 4.3 12.6312 5.96625 9.29875 9.29875C5.96625 12.6312 4.3 16.6983 4.3 21.5C4.3 26.3017 5.96625 30.3687 9.29875 33.7012C12.6312 37.0337 16.6983 38.7 21.5 38.7ZM21.5 34.4C17.9167 34.4 14.8708 33.1458 12.3625 30.6375C9.85416 28.1292 8.6 25.0833 8.6 21.5C8.6 17.9167 9.85416 14.8708 12.3625 12.3625C14.8708 9.85416 17.9167 8.6 21.5 8.6C25.0833 8.6 28.1292 9.85416 30.6375 12.3625C33.1458 14.8708 34.4 17.9167 34.4 21.5C34.4 25.0833 33.1458 28.1292 30.6375 30.6375C28.1292 33.1458 25.0833 34.4 21.5 34.4ZM21.5 30.1C23.865 30.1 25.8896 29.2579 27.5737 27.5737C29.2579 25.8896 30.1 23.865 30.1 21.5C30.1 19.135 29.2579 17.1104 27.5737 15.4262C25.8896 13.7421 23.865 12.9 21.5 12.9C19.135 12.9 17.1104 13.7421 15.4262 15.4262C13.7421 17.1104 12.9 19.135 12.9 21.5C12.9 23.865 13.7421 25.8896 15.4262 27.5737C17.1104 29.2579 19.135 30.1 21.5 30.1ZM21.5 25.8C20.3175 25.8 19.3056 25.3793 18.4642 24.5379C17.6228 23.6966 17.2014 22.6839 17.2 21.5C17.1986 20.3161 17.62 19.3041 18.4642 18.4642C19.3084 17.6243 20.3204 17.2029 21.5 17.2C22.6796 17.1971 23.6923 17.6185 24.5379 18.4642C25.3836 19.3099 25.8043 20.3218 25.8 21.5C25.7957 22.6782 25.375 23.6908 24.5379 24.5379C23.7009 25.385 22.6882 25.8057 21.5 25.8Z" fill="black"/>
</g>
<defs>
<clipPath id="clip0_514_2373">
<rect width="43" height="43" fill="white"/>
</clipPath>
</defs>
</svg>
