<svg width="47" height="38" viewBox="0 0 47 38" fill="none" xmlns="http://www.w3.org/2000/svg">
<path id="Vector" fill-rule="evenodd" clip-rule="evenodd" d="M5.35301 0.68923C5.79457 0.247917 6.39336 0 7.01772 0C7.64208 0 8.24088 0.247917 8.68243 0.68923L14.0368 6.04231C19.8733 3.7856 26.3245 3.68934 32.2258 5.77092C38.127 7.8525 43.0895 11.9747 46.2173 17.3935L46.959 18.6788C46.9859 18.7253 47 18.7781 47 18.8318C47 18.8855 46.9859 18.9383 46.959 18.9848L46.2173 20.2701C44.0708 23.9896 41.0437 27.1251 37.4016 29.4014L41.9813 33.98C42.4232 34.4214 42.6715 35.0202 42.6717 35.6447C42.6719 36.2691 42.424 36.8681 41.9825 37.3098C41.541 37.7515 40.9421 37.9998 40.3175 38C39.6929 38.0002 39.0937 37.7524 38.6519 37.311L32.9608 31.6213C27.1244 33.8771 20.6735 33.9727 14.7727 31.8907C8.87195 29.8087 3.91005 25.6864 0.782712 20.2677L0.0410096 18.9824C0.0141438 18.9359 0 18.8831 0 18.8294C0 18.7757 0.0141438 18.7229 0.0410096 18.6764L0.782712 17.3911C2.92946 13.6725 5.95663 10.5378 9.59838 8.26216L5.35301 4.01784C4.91159 3.57639 4.66361 2.97774 4.66361 2.35353C4.66361 1.72933 4.91159 1.13068 5.35301 0.68923ZM5.42365 18.8318C5.98442 17.9594 6.6085 17.1293 7.29086 16.3483L19.1887 28.2432C16.383 27.6692 13.7201 26.5411 11.356 24.925C8.99196 23.309 6.97667 21.2374 5.42365 18.8318ZM26.0194 28.4151L10.7616 13.1609C11.4868 12.6273 12.2442 12.1408 13.0338 11.7014L29.2358 27.8972C28.1339 28.2032 27.0194 28.419 25.8923 28.5445L26.0194 28.4151ZM32.1414 24.1448C32.9411 22.9561 33.4775 21.6102 33.7148 20.1974C33.9522 18.7845 33.8849 17.3373 33.5175 15.9526C33.1501 14.5679 32.4911 13.2776 31.5846 12.1681C30.678 11.0586 29.5449 10.1555 28.261 9.51922C24.794 8.73237 21.186 8.81648 17.7595 9.76404L20.4531 12.4594C21.4045 12.005 22.4456 11.7694 23.5 11.7697C24.5536 11.7697 25.5938 12.0054 26.5445 12.4594C26.3196 12.6766 26.1402 12.9363 26.0168 13.2235C25.8934 13.5107 25.8285 13.8196 25.8258 14.1322C25.823 14.4448 25.8826 14.7547 26.001 15.044C26.1194 15.3333 26.2942 15.5962 26.5153 15.8172C26.7364 16.0382 26.9993 16.213 27.2887 16.3314C27.578 16.4497 27.8881 16.5093 28.2007 16.5066C28.5134 16.5039 28.8224 16.4389 29.1096 16.3156C29.3969 16.1922 29.6567 16.0129 29.8739 15.788C29.9273 15.901 29.9783 16.0148 30.027 16.1294C30.4059 17.0443 30.5881 18.0288 30.5617 19.0187C30.5353 20.0087 30.301 20.982 29.8739 21.8756L32.1414 24.1448ZM36.7094 24.1448C36.7439 24.0695 36.7769 23.9934 36.8083 23.9165C38.1451 20.6904 38.2349 17.0827 37.0602 13.7941C38.8238 15.2234 40.349 16.9239 41.5787 18.8318C40.2687 20.8646 38.6239 22.661 36.7141 24.1448" fill="black"/>
</svg>
