<svg width="35" height="35" viewBox="0 0 35 35" fill="none" xmlns="http://www.w3.org/2000/svg">
<path d="M10.2502 19.8593C12.6916 19.8593 14.6481 21.8349 14.6481 24.2935V30.196C14.6481 32.6374 12.6916 34.6286 10.2502 34.6286H4.39789C1.97386 34.6286 0 32.6374 0 30.196V24.2935C0 21.8349 1.97386 19.8593 4.39789 19.8593H10.2502ZM30.2314 19.8593C32.6554 19.8593 34.6293 21.8349 34.6293 24.2935V30.196C34.6293 32.6374 32.6554 34.6286 30.2314 34.6286H24.3791C21.9377 34.6286 19.9812 32.6374 19.9812 30.196V24.2935C19.9812 21.8349 21.9377 19.8593 24.3791 19.8593H30.2314ZM10.2502 0C12.6916 0 14.6481 1.99117 14.6481 4.43426V10.3368C14.6481 12.7954 12.6916 14.7693 10.2502 14.7693H4.39789C1.97386 14.7693 0 12.7954 0 10.3368V4.43426C0 1.99117 1.97386 0 4.39789 0H10.2502ZM30.2314 0C32.6554 0 34.6293 1.99117 34.6293 4.43426V10.3368C34.6293 12.7954 32.6554 14.7693 30.2314 14.7693H24.3791C21.9377 14.7693 19.9812 12.7954 19.9812 10.3368V4.43426C19.9812 1.99117 21.9377 0 24.3791 0H30.2314Z" fill="black"/>
</svg>
